<svg xmlns="http://www.w3.org/2000/svg" xmlns:xlink="http://www.w3.org/1999/xlink" preserveAspectRatio="xMidYMid" width="223" height="85" viewBox="0 0 223 85">
	<defs>
    <style>
			.b { fill: #353432; }
		</style>
	</defs>
<g>
	<path d="M214.9,33.8c-0.3,0-0.5-0.1-0.6-0.4c-0.2-0.4-0.1-0.8,0.3-1l7-4.1c0.4-0.2,0.8-0.1,1,0.3c0.2,0.4,0.1,0.8-0.3,1l-7,4.1
		C215.1,33.8,215,33.8,214.9,33.8z"/>
	<path d="M33.1,15.5c-0.3,0-0.5-0.1-0.7-0.4l-3.5-6.9c-0.2-0.4,0-0.8,0.3-1c0.4-0.2,0.8,0,1,0.3l3.5,6.9c0.2,0.4,0,0.8-0.3,1
		C33.3,15.4,33.2,15.5,33.1,15.5z"/>
	<path d="M65.1,11c-0.4,0-0.7-0.3-0.7-0.6l-1.5-7.9c-0.1-0.4,0.2-0.8,0.6-0.9c0.4-0.1,0.8,0.2,0.9,0.6l1.5,7.9
		c0.1,0.4-0.2,0.8-0.6,0.9C65.2,11,65.2,11,65.1,11z"/>
	<path d="M190.2,18c-0.2,0-0.3,0-0.4-0.1c-0.3-0.2-0.4-0.7-0.2-1l4.9-6.9c0.2-0.3,0.7-0.4,1-0.2c0.3,0.2,0.4,0.7,0.2,1l-4.9,6.9
		C190.6,17.9,190.4,18,190.2,18z"/>
	<path d="M161.7,13c-0.1,0-0.2,0-0.3-0.1c-0.4-0.2-0.5-0.6-0.4-1l3.4-7.4c0.2-0.4,0.6-0.5,1-0.4c0.4,0.2,0.5,0.6,0.4,1l-3.4,7.4
		C162.2,12.8,161.9,13,161.7,13z"/>
	<path d="M131.2,10.5c0,0-0.1,0-0.1,0c-0.4-0.1-0.7-0.5-0.6-0.9l1.4-8.4c0.1-0.4,0.5-0.7,0.9-0.6c0.4,0.1,0.7,0.5,0.6,0.9l-1.4,8.4
		C131.8,10.2,131.5,10.5,131.2,10.5z"/>
	<path d="M99.4,9.8c-0.4,0-0.7-0.3-0.7-0.7l-0.5-8c0-0.4,0.3-0.8,0.7-0.8c0.4,0,0.8,0.3,0.8,0.7l0.5,8C100.1,9.4,99.8,9.8,99.4,9.8
		C99.4,9.8,99.4,9.8,99.4,9.8z"/>
	<path d="M220.1,65c-0.1,0-0.3,0-0.4-0.1l-8-5.4c-0.3-0.2-0.4-0.7-0.2-1c0.2-0.3,0.7-0.4,1-0.2l8,5.4c0.3,0.2,0.4,0.7,0.2,1
		C220.6,64.8,220.4,65,220.1,65z"/>
	<path d="M194.6,78c-0.3,0-0.6-0.2-0.7-0.5l-3.5-8.4c-0.2-0.4,0-0.8,0.4-1c0.4-0.2,0.8,0,1,0.4l3.5,8.4c0.2,0.4,0,0.8-0.4,1
		C194.8,77.9,194.7,78,194.6,78z"/>
	<path d="M10.4,66.1c-0.2,0-0.5-0.1-0.6-0.3c-0.2-0.3-0.2-0.8,0.2-1l6.5-4.6c0.3-0.2,0.8-0.2,1,0.2c0.2,0.3,0.2,0.8-0.2,1l-6.5,4.6
		C10.7,66,10.5,66.1,10.4,66.1z"/>
	<path d="M9.4,32c-0.1,0-0.1,0-0.2,0l-8-1.9c-0.4-0.1-0.6-0.5-0.6-0.9c0.1-0.4,0.5-0.6,0.9-0.6l8,1.9c0.4,0.1,0.6,0.5,0.6,0.9
		C10,31.8,9.7,32,9.4,32z"/>
	<path d="M38.7,78c-0.1,0-0.3,0-0.4-0.1c-0.4-0.2-0.5-0.7-0.3-1l4.4-7.4c0.2-0.4,0.7-0.5,1-0.3c0.4,0.2,0.5,0.7,0.3,1l-4.4,7.4
		C39.2,77.9,38.9,78,38.7,78z"/>
	<path d="M100.2,84.5C100.1,84.5,100.1,84.5,100.2,84.5c-0.4,0-0.8-0.4-0.8-0.8l0.4-9.9c0-0.4,0.3-0.7,0.8-0.7
		c0.4,0,0.7,0.4,0.7,0.8l-0.4,9.9C100.9,84.2,100.6,84.5,100.2,84.5z"/>
	<path d="M68.7,82.5c0,0-0.1,0-0.2,0c-0.4-0.1-0.7-0.5-0.6-0.9l1.9-9.4c0.1-0.4,0.5-0.7,0.9-0.6c0.4,0.1,0.7,0.5,0.6,0.9l-1.9,9.4
		C69.3,82.2,69,82.5,68.7,82.5z"/>
	<path d="M134.5,83.8c-0.4,0-0.7-0.3-0.7-0.7l-0.9-9.5c0-0.4,0.3-0.8,0.7-0.8c0.4,0,0.8,0.3,0.8,0.7l0.9,9.5
		C135.3,83.4,135,83.7,134.5,83.8C134.6,83.8,134.6,83.8,134.5,83.8z"/>
	<path d="M165,81.8c-0.3,0-0.7-0.2-0.7-0.6l-1.9-9c-0.1-0.4,0.2-0.8,0.6-0.9c0.4-0.1,0.8,0.2,0.9,0.6l1.9,9c0.1,0.4-0.2,0.8-0.6,0.9
		C165.1,81.8,165.1,81.8,165,81.8z"/>
</g>
<path class="b" d="M34.6,43.8l1.2-6l-2.4,0.5c-0.6-0.3-1.4-0.5-2.1-0.5c-2.9,0-5.1,2.4-5.1,5.5c0,2.3,1.5,3.9,3.4,3.9
	c1,0,2-0.5,2.9-1.4c0.5,1.2,1.5,1.9,3,1.9c2.6,0,5-2.2,5-6.4c0-5-4.2-8.1-9-8.1c-5.4,0-9.5,4.4-9.5,9.7c0,5,3.7,9,8.8,9
	c1.2,0,2.2-0.2,3.3-0.6l-0.3-0.9c-1,0.3-2,0.5-3,0.5c-4.5,0-7.7-3.6-7.7-8c0-4.7,3.7-8.7,8.4-8.7c4.1,0,7.9,2.8,7.9,7.2
	c0,3.2-1.6,4.9-3.3,4.9C34.7,46.3,34.3,45.4,34.6,43.8z M32.1,44.7c-0.5,0.4-1,0.7-1.7,0.7c-1.1,0-2-0.9-2-2.4
	c0-1.8,1.1-3.5,2.8-3.5c0.7,0,1.4,0.4,1.8,0.8L32.1,44.7z"/>
<path class="b" d="M47,33.9c0-1-0.6-1.7-1.8-1.7c-1.1,0-1.7,0.7-1.7,1.7c0,1,0.6,1.7,1.7,1.7C46.3,35.6,47,35,47,33.9z M43.6,54.6
	c2.2-0.9,3-2.6,3-5.8c0,0.2,0-11.5,0-11.5l-2.8,0.4c0,0,0,11.4,0,11c0,2.4-0.6,3.3-1.9,3.9L43.6,54.6z"/>
<path class="b" d="M50.7,37.6v7.6c0,2.4,1.3,3.8,3.5,3.8c1.4,0,2.7-0.7,3.6-1.7c0,0.1,0,1.6,0,1.6l2.8-0.4v-11h-2.8v7.9
	c-0.5,0.5-1.4,1-2.4,1c-1.2,0-1.9-0.5-1.9-2.2v-6.7H50.7z"/>
<path class="b" d="M72.2,37.6c-0.7-0.2-1.6-0.4-2.4-0.4c-3.1,0-5.6,2.4-5.6,6c0,3.4,1.9,5.8,4.8,5.8c1.4,0,2.4-0.7,3.1-1.4
	c0,0.1,0,1.1,0,1.1H75V32.3l-2.8,0.4V37.6z M72.2,40.2c0,0,0,5.7,0,5.6c-0.6,0.6-1.3,0.9-2.3,0.9c-1.7,0-2.8-1.4-2.8-3.5
	c0-2,1.1-3.6,3-3.6C70.9,39.5,71.6,39.8,72.2,40.2z"/>
<path class="b" d="M81.4,43.7c0,0,7.2-0.1,7.2-0.1c0.1-0.5,0.2-1.2,0.2-1.8c0-2.7-1.6-4.5-4.6-4.5c-3.3,0-5.7,2.4-5.7,6
	c0,3.5,2.4,5.8,5.9,5.8c1.5,0,3-0.3,4-0.9l-0.4-2.4c-1,0.6-2.3,1-3.5,1C82.7,46.8,81.5,45.6,81.4,43.7L81.4,43.7z M81.4,42.1
	c0.1-1.4,1.1-2.6,2.6-2.6c1.5,0,2.1,0.9,2.1,2.4c0,0,0,0.1,0,0.2L81.4,42.1z"/>
<path class="b" d="M100.5,45.5c0-2.2-1.7-3-3.8-3.5c-1.3-0.3-2.2-0.6-2.2-1.4c0-0.7,0.6-1.1,1.7-1.1c1,0,2.4,0.4,3.5,0.9l0.6-2.2
	c-1-0.5-2.7-0.9-4-0.9c-2.7,0-4.4,1.4-4.4,3.5s1.7,3,3.7,3.4c1.3,0.3,2.2,0.6,2.2,1.5c0,0.8-0.7,1.2-1.8,1.2c-1.2,0-2.6-0.4-3.7-1
	l-0.6,2.2c1.1,0.6,2.9,1,4.3,1C98.7,49.1,100.5,47.6,100.5,45.5z"/>
<path class="b" d="M107.1,33.9c0-1-0.6-1.7-1.8-1.7c-1.1,0-1.7,0.7-1.7,1.7c0,1,0.6,1.7,1.7,1.7C106.5,35.6,107.1,35,107.1,33.9z
	 M106.8,48.7V37.3l-2.8,0.4v11H106.8z"/>
<path class="b" d="M119.9,48.2l-0.5-2.3c-0.9,0.6-1.9,0.9-3.1,0.9c-1.9,0-3.1-1.3-3.1-3.6c0-2.1,1.1-3.5,3.1-3.5
	c1,0,2.1,0.3,3,0.9l0.6-2.3c-1-0.6-2.3-0.9-3.8-0.9c-3.5,0-5.8,2.3-5.8,5.9c0,3.6,2.1,5.9,5.7,5.9C117.6,49.1,119,48.7,119.9,48.2z"
	/>
<path class="b" d="M125.5,43.7c0,0,7.2-0.1,7.2-0.1c0.1-0.5,0.2-1.2,0.2-1.8c0-2.7-1.6-4.5-4.6-4.5c-3.3,0-5.7,2.4-5.7,6
	c0,3.5,2.4,5.8,5.9,5.8c1.5,0,3-0.3,4-0.9l-0.4-2.4c-1,0.6-2.3,1-3.5,1C126.8,46.8,125.6,45.6,125.5,43.7L125.5,43.7z M125.6,42.1
	c0.1-1.4,1.1-2.6,2.6-2.6c1.5,0,2.1,0.9,2.1,2.4c0,0,0,0.1,0,0.2L125.6,42.1z"/>
<path class="b" d="M145.5,48.2l-0.5-2.3c-0.9,0.6-1.9,0.9-3.1,0.9c-1.9,0-3.1-1.3-3.1-3.6c0-2.1,1.1-3.5,3.1-3.5
	c1,0,2.1,0.3,3,0.9l0.6-2.3c-1-0.6-2.3-0.9-3.8-0.9c-3.5,0-5.8,2.3-5.8,5.9c0,3.6,2.1,5.9,5.7,5.9C143.1,49.1,144.5,48.7,145.5,48.2
	z"/>
<path class="b" d="M151.9,41.9c0.7-1.3,1.7-2,2.6-2c0.5,0,1.1,0.1,1.6,0.4l0.6-2.5c-0.6-0.4-1.3-0.5-2-0.5c-1.3,0-2.2,0.6-2.9,1.8
	v-1.8l-2.8,0.4v11h2.8V41.9z"/>
<path class="b" d="M161.6,43.7c0,0,7.2-0.1,7.2-0.1c0.1-0.5,0.2-1.2,0.2-1.8c0-2.7-1.6-4.5-4.6-4.5c-3.3,0-5.7,2.4-5.7,6
	c0,3.5,2.4,5.8,5.9,5.8c1.5,0,3-0.3,4-0.9l-0.4-2.4c-1,0.6-2.3,1-3.5,1C162.9,46.8,161.7,45.6,161.6,43.7L161.6,43.7z M161.7,42.1
	c0.1-1.4,1.1-2.6,2.6-2.6c1.5,0,2.1,0.9,2.1,2.4c0,0,0,0.1,0,0.2L161.7,42.1z"/>
<path class="b" d="M178.5,47.4c0.4,1.1,1.4,1.8,3.5,1.5l0.2-2.1c-0.8,0-1-0.2-1-1v-4c0.1-3-1.2-4.6-4.7-4.6
	c-1.8,0-3.6,0.6-4.6,1.3l0.6,2.2c1.2-0.7,2.5-1.2,3.7-1.2c1.6,0,2.2,0.6,2.2,2.1V42c-5.1,0.2-6.6,1.9-6.6,3.9c0,1.8,1.4,3.1,3.4,3.1
	C176.7,49.1,177.7,48.4,178.5,47.4L178.5,47.4z M178.4,46c-0.5,0.6-1.2,1-2.1,1c-1,0-1.7-0.6-1.7-1.4c0-1.2,1-1.7,3.8-2.1V46z"/>
<path class="b" d="M202.1,48.7v-7.6c0-2.4-1.3-3.8-3.4-3.8c-1.5,0-2.8,0.7-3.9,1.9c-0.6-1.2-1.7-1.9-3-1.9c-1.4,0-2.5,0.6-3.5,1.6
	c0-0.1,0-1.6,0-1.6l-2.8,0.4v11h2.8v-8c0.5-0.5,1.3-0.9,2.3-0.9c1.2,0,1.8,0.6,1.8,2.2v6.7h2.8v-7.3v-0.7c0.6-0.5,1.3-1,2.3-1
	c1.2,0,1.8,0.6,1.8,2.2v6.7H202.1z"/>
</svg>
