<svg xmlns="http://www.w3.org/2000/svg" xmlns:xlink="http://www.w3.org/1999/xlink" preserveAspectRatio="xMidYMid" width="214" height="85" viewBox="0 0 214 85">
	<defs>
    <style>
			.b { fill: #353432; }
		</style>
	</defs>
	<path class="b" d="M200.6,33.8c-0.3,0-0.5-0.1-0.6-0.4c-0.2-0.4-0.1-0.8,0.3-1l7-4.1c0.4-0.2,0.8-0.1,1,0.3s0.1,0.8-0.3,1l-7,4.1
		C200.8,33.8,200.7,33.8,200.6,33.8z"/>
	<path class="b" d="M41.8,15.5c-0.3,0-0.5-0.1-0.7-0.4l-3.5-6.9c-0.2-0.4,0-0.8,0.3-1c0.4-0.2,0.8,0,1,0.3l3.5,6.9c0.2,0.4,0,0.8-0.3,1
		C42,15.4,41.9,15.5,41.8,15.5z"/>
	<path class="b" d="M177.2,18.8c-0.2,0-0.3,0-0.4-0.1c-0.3-0.2-0.4-0.7-0.2-1l4.9-6.9c0.2-0.3,0.7-0.4,1-0.2s0.4,0.7,0.2,1l-4.9,6.9
		C177.6,18.6,177.4,18.8,177.2,18.8z"/>
	<path class="b" d="M144.2,13c-0.1,0-0.2,0-0.3-0.1c-0.4-0.2-0.5-0.6-0.4-1l3.4-7.4c0.2-0.4,0.6-0.5,1-0.4c0.4,0.2,0.5,0.6,0.4,1l-3.4,7.4
		C144.7,12.8,144.4,13,144.2,13z"/>
	<path class="b" d="M110.7,10.5h-0.1c-0.4-0.1-0.7-0.5-0.6-0.9l1.4-8.4c0.1-0.4,0.5-0.7,0.9-0.6s0.7,0.5,0.6,0.9l-1.4,8.4
		C111.3,10.2,111,10.5,110.7,10.5z"/>
	<path class="b" d="M73.9,9.8c-0.4,0-0.7-0.3-0.7-0.7l-0.5-8c0-0.4,0.3-0.8,0.7-0.8c0.4,0,0.8,0.3,0.8,0.7l0.5,8C74.6,9.4,74.3,9.8,73.9,9.8
		L73.9,9.8z"/>
	<path class="b" d="M206.8,65c-0.1,0-0.3,0-0.4-0.1l-8-5.4c-0.3-0.2-0.4-0.7-0.2-1s0.7-0.4,1-0.2l8,5.4c0.3,0.2,0.4,0.7,0.2,1
		C207.3,64.8,207.1,65,206.8,65z"/>
	<path class="b" d="M179.6,78c-0.3,0-0.6-0.2-0.7-0.5l-3.5-8.4c-0.2-0.4,0-0.8,0.4-1s0.8,0,1,0.4l3.5,8.4c0.2,0.4,0,0.8-0.4,1
		C179.8,77.9,179.7,78,179.6,78z"/>
	<path class="b" d="M12.9,66.1c-0.2,0-0.5-0.1-0.6-0.3c-0.2-0.3-0.2-0.8,0.2-1l6.5-4.6c0.3-0.2,0.8-0.2,1,0.2c0.2,0.3,0.2,0.8-0.2,1L13.3,66
		C13.2,66,13,66.1,12.9,66.1z"/>
	<path class="b" d="M14.4,32c-0.1,0-0.1,0-0.2,0l-8-1.9c-0.4-0.1-0.6-0.5-0.6-0.9c0.1-0.4,0.5-0.6,0.9-0.6l8,1.9c0.4,0.1,0.6,0.5,0.6,0.9
		C15,31.8,14.7,32,14.4,32z"/>
	<path class="b" d="M43.7,78c-0.1,0-0.3,0-0.4-0.1c-0.4-0.2-0.5-0.7-0.3-1l4.4-7.4c0.2-0.4,0.7-0.5,1-0.3c0.4,0.2,0.5,0.7,0.3,1l-4.4,7.4
		C44.2,77.9,43.9,78,43.7,78z"/>
	<path class="b" d="M74.1,83.7C74,83.7,74,83.7,74.1,83.7c-0.4,0-0.8-0.4-0.8-0.8l0.7-9.4c0-0.4,0.3-0.7,0.8-0.7c0.4,0,0.7,0.4,0.7,0.8
		L74.8,83C74.8,83.4,74.5,83.7,74.1,83.7z"/>
	<path class="b" d="M109.2,83.8c-0.4,0-0.7-0.3-0.7-0.7l-0.9-9.5c0-0.4,0.3-0.8,0.7-0.8s0.8,0.3,0.8,0.7L110,83
		C110,83.4,109.7,83.7,109.2,83.8C109.3,83.8,109.3,83.8,109.2,83.8z"/>
	<path class="b" d="M145.5,81.8c-0.3,0-0.7-0.2-0.7-0.6l-1.9-9c-0.1-0.4,0.2-0.8,0.6-0.9c0.4-0.1,0.8,0.2,0.9,0.6l1.9,9
		c0.1,0.4-0.2,0.8-0.6,0.9C145.6,81.8,145.6,81.8,145.5,81.8z"/>
	<path class="b" d="M28.1,37h5v12.4h4V37h5v-3.3h-14V37z M58.4,39.7h-6.3v-6.1h-4v15.7h4v-6.2h6.3v6.2h4V33.6h-4V39.7z M69.5,49.3H81v-3.2
		h-7.6V43h6.1v-3.2h-6.1v-3H81v-3.2H69.5V49.3z M103.7,39.9c-1.9-0.5-3.3-0.9-3.3-2c0-0.9,0.7-1.3,2.1-1.3c1.6,0,3.5,0.6,5.1,1.4
		l0.8-3.3c-1.5-0.8-3.4-1.4-5.9-1.4c-3.9,0-6,1.9-6,4.9c0,3.1,2.8,4.2,5.1,4.8c2.1,0.6,3.2,0.9,3.2,2c0,1-1,1.5-2.4,1.5
		c-1.9,0-3.8-0.6-5.4-1.5l-0.8,3.3c1.5,0.8,3.7,1.4,6.1,1.4c4.1,0,6.4-2.1,6.4-5.1S106.1,40.5,103.7,39.9z M122.8,36.6
		c1.4,0,2.8,0.4,4,1.1l1.2-3.3c-1.4-0.7-3.3-1.2-5.2-1.2c-5.2,0-8.5,3.2-8.5,8.3c0,5.3,3.3,8.2,8.4,8.2c1.8,0,3.9-0.5,5.2-1.1
		L127,45c-1.2,0.8-2.6,1.3-4.2,1.3c-2.8,0-4.5-1.9-4.5-4.9C118.3,38.5,120.1,36.6,122.8,36.6z M141.3,33.2c-4.7,0-8.3,3.3-8.3,8.3
		c0,5.3,3.5,8.2,8.2,8.2c4.7,0,8.3-3.3,8.3-8.3C149.5,36.1,145.9,33.2,141.3,33.2z M141.3,46.5c-2.7,0-4.3-2.1-4.3-5.1
		c0-2.9,1.5-5,4.2-5c2.7,0,4.3,2,4.3,5.1C145.5,44.5,143.9,46.5,141.3,46.5z M163.5,33.2c-4.7,0-8.3,3.3-8.3,8.3
		c0,5.3,3.5,8.2,8.2,8.2c4.7,0,8.3-3.3,8.3-8.3C171.7,36.1,168.2,33.2,163.5,33.2z M163.5,46.5c-2.7,0-4.3-2.1-4.3-5.1
		c0-2.9,1.5-5,4.2-5s4.3,2,4.3,5.1C167.7,44.5,166.1,46.5,163.5,46.5z M183.9,33.6c0,0-5.8,0-5.8,0v15.7h4v-4.6l1.5,0
		c4.5,0,7-2,7-5.7C190.6,35.8,188.3,33.6,183.9,33.6z M183.6,41.7l-1.6,0v-4.9c0,0,1.2,0,1.6,0c2,0,3,0.8,3,2.4
		S185.7,41.6,183.6,41.7z"/>
</svg>
