<svg xmlns="http://www.w3.org/2000/svg" xmlns:xlink="http://www.w3.org/1999/xlink" preserveAspectRatio="xMidYMid" width="100" height="54" viewBox="0 0 100 54">
	<defs>
    <style>
			.b { fill: #353432; }
		</style>
	</defs>
<path class="b" d="M28.8,33V21.4h-2.9v4.5h-4.6v-4.5h-2.9V33h2.9v-4.6h4.6V33H28.8z"/>
<path class="b" d="M42.2,33v-2.4h-5.5v-2.3h4.4V26h-4.4v-2.2h5.5v-2.4h-8.3V33H42.2z"/>
<path class="b" d="M54.5,33v-2.5h-4.8v-9.1h-2.9V33H54.5z"/>
<path class="b" d="M66.7,33v-2.5h-4.8v-9.1H59V33H66.7z"/>
<path class="b" d="M81.9,27.1c0-3.9-2.6-6-5.9-6c-3.4,0-6,2.4-6,6.1c0,3.9,2.6,6,5.9,6C79.3,33.3,81.9,30.8,81.9,27.1z M79,27.2
	c0,2.2-1.1,3.7-3,3.7c-1.9,0-3.1-1.5-3.1-3.7c0-2.2,1.1-3.7,3-3.7C77.9,23.5,79,25,79,27.2z"/>
<path class="b" d="M61.6,8.6c-0.1,0-0.1,0-0.2,0c-0.4-0.1-0.7-0.5-0.6-0.9l1.5-7c0.1-0.4,0.5-0.7,0.9-0.6c0.4,0.1,0.7,0.5,0.6,0.9
	l-1.5,7C62.3,8.3,62,8.6,61.6,8.6z"/>
<path class="b" d="M80.3,11.4c-0.2,0-0.4-0.1-0.6-0.3c-0.3-0.3-0.2-0.8,0.1-1.1l5.6-5c0.3-0.3,0.8-0.3,1.1,0.1
	c0.3,0.3,0.2,0.8-0.1,1.1l-5.6,5C80.7,11.4,80.5,11.4,80.3,11.4z"/>
<path class="b" d="M92.2,28.3c-0.4,0-0.8-0.3-0.8-0.8c0-0.4,0.3-0.8,0.8-0.8l7.1-0.1c0,0,0,0,0,0c0.4,0,0.8,0.3,0.8,0.8
	c0,0.4-0.3,0.8-0.8,0.8L92.2,28.3C92.2,28.3,92.2,28.3,92.2,28.3z"/>
<path class="b" d="M88.9,48.5c-0.2,0-0.4-0.1-0.5-0.2l-5-5c-0.3-0.3-0.3-0.8,0-1.1c0.3-0.3,0.8-0.3,1.1,0l5,5
	c0.3,0.3,0.3,0.8,0,1.1C89.3,48.4,89.1,48.5,88.9,48.5z"/>
<path class="b" d="M70.1,53.3c-0.3,0-0.5-0.2-0.7-0.4l-2.8-5.8c-0.2-0.4,0-0.8,0.3-1c0.4-0.2,0.8,0,1,0.4l2.8,5.8
	c0.2,0.4,0,0.8-0.3,1C70.3,53.3,70.2,53.3,70.1,53.3z"/>
<path class="b" d="M23,10.1c-0.2,0-0.4-0.1-0.6-0.3l-4.7-5.4c-0.3-0.3-0.2-0.8,0.1-1.1c0.3-0.3,0.8-0.3,1.1,0.1l4.7,5.4
	c0.3,0.3,0.2,0.8-0.1,1.1C23.4,10,23.2,10.1,23,10.1z"/>
<path class="b" d="M7.8,27.4C7.8,27.4,7.8,27.4,7.8,27.4L0.7,27C0.3,27,0,26.6,0,26.2c0-0.4,0.4-0.8,0.8-0.7l7.1,0.4
	c0.4,0,0.7,0.4,0.7,0.8C8.5,27.1,8.2,27.4,7.8,27.4z"/>
<path class="b" d="M12.7,47.5c-0.2,0-0.4-0.1-0.6-0.3c-0.3-0.3-0.2-0.8,0.1-1.1l5.5-4.6c0.3-0.3,0.8-0.2,1.1,0.1
	c0.3,0.3,0.2,0.8-0.1,1.1l-5.5,4.6C13,47.5,12.8,47.5,12.7,47.5z"/>
<path class="b" d="M31.7,53.2c-0.1,0-0.2,0-0.3-0.1c-0.4-0.2-0.6-0.6-0.4-1l2.8-6.6c0.2-0.4,0.6-0.6,1-0.4c0.4,0.2,0.6,0.6,0.4,1
	l-2.8,6.6C32.3,53,32,53.2,31.7,53.2z"/>
<path class="b" d="M51.3,54c-0.4,0-0.8-0.3-0.8-0.8V47c0-0.4,0.3-0.8,0.8-0.8c0.4,0,0.8,0.3,0.8,0.8v6.2C52,53.7,51.7,54,51.3,54z
	"/>
<path class="b" d="M42.5,8.6c-0.3,0-0.7-0.2-0.7-0.6l-1.6-7C40,0.5,40.3,0.1,40.7,0c0.4-0.1,0.8,0.2,0.9,0.6l1.6,7
	c0.1,0.4-0.2,0.8-0.6,0.9C42.6,8.6,42.5,8.6,42.5,8.6z"/>
</svg>
